HIERARCHY
ROOT hip
{
  OFFSET 0 0 0
  CHANNELS 6 Xposition Yposition Zposition Zrotation Yrotation Xrotation
  JOINT abdomen
  {
    OFFSET 0 20.6881 -0.73152
    CHANNELS 3 Zrotation Xrotation Yrotation
    JOINT chest
    {
      OFFSET 0 11.7043 -0.48768
      CHANNELS 3 Zrotation Xrotation Yrotation
      JOINT neck
      {
        OFFSET 0 22.1894 -2.19456
        CHANNELS 3 Zrotation Xrotation Yrotation
        JOINT head
        {
          OFFSET -0.24384 7.07133 1.2192
          CHANNELS 3 Zrotation Xrotation Yrotation
          JOINT leftEye
          {
            OFFSET 4.14528 8.04674 8.04672
            CHANNELS 3 Zrotation Xrotation Yrotation
            End Site
            {
              OFFSET 1 0 0
            }
          }
          JOINT rightEye
          {
            OFFSET -3.6576 8.04674 8.04672
            CHANNELS 3 Zrotation Xrotation Yrotation
            End Site
            {
              OFFSET 1 0 0
            }
          }
        }
      }
      JOINT rCollar
      {
        OFFSET -2.68224 19.2634 -4.8768
        CHANNELS 3 Zrotation Xrotation Yrotation
        JOINT rShldr
        {
          OFFSET -8.77824 -1.95073 1.46304
          CHANNELS 3 Zrotation Xrotation Yrotation
          JOINT rForeArm
          {
            OFFSET -28.1742 -1.7115 0.48768
            CHANNELS 3 Zrotation Xrotation Yrotation
            JOINT rHand
            {
              OFFSET -22.5879 0.773209 7.07136
              CHANNELS 3 Zrotation Xrotation Yrotation
              JOINT rThumb1
              {
                OFFSET -1.2192 -0.487915 3.41376
                CHANNELS 3 Zrotation Xrotation Yrotation
                JOINT rThumb2
                {
                  OFFSET -3.37035 -0.52449 3.41376
                  CHANNELS 3 Zrotation Xrotation Yrotation
                  End Site
                  {
                    OFFSET -1.78271 -1.18214 1.43049
                  }
                }
              }
              JOINT rIndex1
              {
                OFFSET -7.75947 0.938293 5.60832
                CHANNELS 3 Zrotation Xrotation Yrotation
                JOINT rIndex2
                {
                  OFFSET -2.54057 -0.884171 1.56538
                  CHANNELS 3 Zrotation Xrotation Yrotation
                  End Site
                  {
                    OFFSET -1.62519 -0.234802 1.16502
                  }
                }
              }
              JOINT rMid1
              {
                OFFSET -8.24714 1.18213 3.41376
                CHANNELS 3 Zrotation Xrotation Yrotation
                JOINT rMid2
                {
                  OFFSET -3.10165 -0.590103 1.0647
                  CHANNELS 3 Zrotation Xrotation Yrotation
                  End Site
                  {
                    OFFSET -2.48547 -0.328903 0.83742
                  }
                }
              }
              JOINT rRing1
              {
                OFFSET -8.82822 0.546677 1.51678
                CHANNELS 3 Zrotation Xrotation Yrotation
                JOINT rRing2
                {
                  OFFSET -2.60934 -0.819778 -0.0198488
                  CHANNELS 3 Zrotation Xrotation Yrotation
                  End Site
                  {
                    OFFSET -2.33842 -0.294052 0.168128
                  }
                }
              }
              JOINT rPinky1
              {
                OFFSET -8.27202 -0.0477905 -0.4584
                CHANNELS 3 Zrotation Xrotation Yrotation
                JOINT rPinky2
                {
                  OFFSET -1.82734 -0.647385 -0.700984
                  CHANNELS 3 Zrotation Xrotation Yrotation
                  End Site
                  {
                    OFFSET -1.69225 -0.51767 -0.607171
                  }
                }
              }
            }
          }
        }
      }
      JOINT lCollar
      {
        OFFSET 2.68224 19.2634 -4.8768
        CHANNELS 3 Zrotation Xrotation Yrotation
        JOINT lShldr
        {
          OFFSET 8.77824 -1.95073 1.46304
          CHANNELS 3 Zrotation Xrotation Yrotation
          JOINT lForeArm
          {
            OFFSET 28.1742 -1.7115 0.48768
            CHANNELS 3 Zrotation Xrotation Yrotation
            JOINT lHand
            {
              OFFSET 22.5879 0.773209 7.07136
              CHANNELS 3 Zrotation Xrotation Yrotation
              JOINT lThumb1
              {
                OFFSET 1.2192 -0.487915 3.41376
                CHANNELS 3 Zrotation Xrotation Yrotation
                JOINT lThumb2
                {
                  OFFSET 3.37035 -0.52449 3.41376
                  CHANNELS 3 Zrotation Xrotation Yrotation
                  End Site
                  {
                    OFFSET 1.78271 -1.18214 1.43049
                  }
                }
              }
              JOINT lIndex1
              {
                OFFSET 7.75947 0.938293 5.60832
                CHANNELS 3 Zrotation Xrotation Yrotation
                JOINT lIndex2
                {
                  OFFSET 2.54057 -0.884171 1.56538
                  CHANNELS 3 Zrotation Xrotation Yrotation
                  End Site
                  {
                    OFFSET 1.62519 -0.234802 1.16502
                  }
                }
              }
              JOINT lMid1
              {
                OFFSET 8.24714 1.18213 3.41376
                CHANNELS 3 Zrotation Xrotation Yrotation
                JOINT lMid2
                {
                  OFFSET 3.10165 -0.590103 1.0647
                  CHANNELS 3 Zrotation Xrotation Yrotation
                  End Site
                  {
                    OFFSET 2.48547 -0.328903 0.83742
                  }
                }
              }
              JOINT lRing1
              {
                OFFSET 8.82822 0.546677 1.51678
                CHANNELS 3 Zrotation Xrotation Yrotation
                JOINT lRing2
                {
                  OFFSET 2.60934 -0.819778 -0.0198488
                  CHANNELS 3 Zrotation Xrotation Yrotation
                  End Site
                  {
                    OFFSET 2.33842 -0.294052 0.168128
                  }
                }
              }
              JOINT lPinky1
              {
                OFFSET 8.27202 -0.0477905 -0.4584
                CHANNELS 3 Zrotation Xrotation Yrotation
                JOINT lPinky2
                {
                  OFFSET 1.82734 -0.647385 -0.700984
                  CHANNELS 3 Zrotation Xrotation Yrotation
                  End Site
                  {
                    OFFSET 1.69225 -0.51767 -0.607171
                  }
                }
              }
            }
          }
        }
      }
    }
  }
  JOINT rButtock
  {
    OFFSET -8.77824 4.35084 1.2192
    CHANNELS 3 Zrotation Xrotation Yrotation
    JOINT rThigh
    {
      OFFSET 0 -1.70687 -2.19456
      CHANNELS 3 Zrotation Xrotation Yrotation
      JOINT rShin
      {
        OFFSET 0 -36.8199 0.73152
        CHANNELS 3 Zrotation Xrotation Yrotation
        JOINT rFoot
        {
          OFFSET 0.73152 -45.1104 -5.12064
          CHANNELS 3 Zrotation Xrotation Yrotation
          End Site
          {
            OFFSET -1.1221 -3.69964 12.103
          }
        }
      }
    }
  }
  JOINT lButtock
  {
    OFFSET 8.77824 4.35084 1.2192
    CHANNELS 3 Zrotation Xrotation Yrotation
    JOINT lThigh
    {
      OFFSET 0 -1.70687 -2.19456
      CHANNELS 3 Zrotation Xrotation Yrotation
      JOINT lShin
      {
        OFFSET 0 -36.8199 0.73152
        CHANNELS 3 Zrotation Xrotation Yrotation
        JOINT lFoot
        {
          OFFSET -0.73152 -45.1104 -5.12064
          CHANNELS 3 Zrotation Xrotation Yrotation
          End Site
          {
            OFFSET 1.1221 -3.69964 12.103
          }
        }
      }
    }
  }
}
MOTION
Frames:	4
Frame Time:	0.00833333
205.632 93.5635 -6.27694 139.828 99.6471 132.442 6.75857 8.52162 14.9808 -4.23385 -4.13418 4.31716 0.224028 -11.6326 -2.40261 2.59405 6.22008 -4.83048 -0.0 0.0 0.0 -0.0 0.0 0.0 8.39568e-14 -9.53427e-14 -1.478e-13 74.7103 48.2175 -0.00976112 -27.7522 -41.5601 86.7662 -0.570499 -20.9535 -3.08499 -9.47288e-10 -4.91332e-09 -6.27126e-09 -1.53693e-09 -8.53567e-09 -1.08554e-08 -9.47288e-10 -4.91332e-09 -6.27127e-09 7.73091 5.47488 0.417314 -9.47292e-10 -4.91332e-09 -6.27126e-09 2.90554 0.965183 0.102902 -9.47288e-10 -4.91333e-09 -6.27126e-09 10.2786 0.731801 0.0259123 -9.47295e-10 -4.91333e-09 -6.27125e-09 2.22167 -0.733487 -0.20892 8.38727e-14 -9.53373e-14 -1.47955e-13 -115.612 40.2143 75.3814 28.4332 -35.4605 -76.1058 0.980405 -26.9241 4.09306 -6.44963e-11 5.07687e-11 -3.19764e-09 -5.1575e-11 8.93629e-11 -5.51931e-09 -6.45019e-11 5.07699e-11 -3.19763e-09 -7.73091 5.47488 -0.417314 -6.44957e-11 5.0769e-11 -3.19764e-09 -2.90554 0.965183 -0.102902 -6.45065e-11 5.07698e-11 -3.19764e-09 -10.2786 0.731801 -0.0259123 -6.44911e-11 5.07706e-11 -3.19764e-09 -2.22167 -0.733487 0.20892 -2.03217e-16 0.0 -3.88251e-19 7.3421 14.4273 -0.630947 -0.0539383 26.4781 0.682029 -0.180755 -3.22529 3.64458 2.03217e-16 0.0 3.88251e-19 15.6262 -16.1178 9.93507 0.0482694 12.3957 -0.156141 -0.329367 7.91357 12.5284
207.073 93.6849 -6.16942 138.042 100.248 131.139 7.11231 7.71582 15.2263 -4.43332 -3.96235 4.36625 0.244661 -11.7998 -2.43018 2.6404 6.55149 -4.9015 -0.0 0.0 0.0 -0.0 0.0 0.0 9.6233e-14 1.94014e-13 -1.04859e-13 74.1138 48.7285 0.358479 -27.6772 -41.8599 87.3243 -0.597248 -21.4089 -3.15874 -8.47484e-10 -3.75474e-09 -4.57897e-09 -1.3894e-09 -6.52629e-09 -7.92935e-09 -8.47484e-10 -3.75474e-09 -4.57897e-09 7.73091 5.47488 0.417314 -8.47486e-10 -3.75474e-09 -4.57897e-09 2.90554 0.965183 0.102902 -8.47483e-10 -3.75474e-09 -4.57897e-09 10.2786 0.731801 0.0259123 -8.4749e-10 -3.75474e-09 -4.57895e-09 2.22167 -0.733487 -0.20892 9.61969e-14 1.94014e-13 -1.05008e-13 -115.282 39.6331 75.8463 28.4333 -35.6972 -76.5034 0.959212 -26.6613 4.04649 -3.10476e-10 1.59855e-11 -2.85285e-09 -4.82706e-10 2.76835e-11 -4.92998e-09 -3.10482e-10 1.59871e-11 -2.85284e-09 -7.73091 5.47488 -0.417314 -3.10476e-10 1.59857e-11 -2.85285e-09 -2.90554 0.965183 -0.102902 -3.10487e-10 1.5987e-11 -2.85286e-09 -10.2786 0.731801 -0.0259123 -3.1047e-10 1.59875e-11 -2.85286e-09 -2.22167 -0.733487 0.20892 -2.03217e-16 0.0 -3.88251e-19 7.66928 14.3821 0.444218 -0.0743923 26.9476 0.648755 -0.151693 -2.88892 3.92193 2.03217e-16 0.0 3.88251e-19 15.9537 -15.8652 10.0271 0.0350206 9.78888 -0.0877523 -0.433727 8.12799 12.5737
208.54 93.6537 -6.10958 136.62 100.745 130.222 7.3071 6.99247 15.4499 -4.57817 -3.77081 4.41185 0.329048 -11.9396 -2.43329 2.59996 6.65752 -4.95097 -0.0 0.0 0.0 -0.0 0.0 0.0 4.98453e-14 6.00772e-14 -5.14899e-14 73.5258 49.182 0.826787 -27.596 -42.1682 87.9005 -0.626582 -21.9005 -3.23875 -6.81676e-10 -2.59191e-09 -3.0582e-09 -1.12744e-09 -4.50648e-09 -5.29803e-09 -6.81674e-10 -2.59191e-09 -3.05821e-09 7.73091 5.47488 0.417314 -6.81677e-10 -2.59191e-09 -3.05821e-09 2.90554 0.965183 0.102902 -6.81674e-10 -2.59191e-09 -3.0582e-09 10.2786 0.731801 0.0259123 -6.81681e-10 -2.59191e-09 -3.05819e-09 2.22167 -0.733487 -0.20892 4.98248e-14 6.00758e-14 -5.16623e-14 -114.894 39.0596 76.145 28.432 -35.9219 -76.88 0.934104 -26.3434 3.99049 -3.37595e-10 6.99192e-11 -2.2008e-09 -5.41703e-10 1.20397e-10 -3.80587e-09 -3.37601e-10 6.99203e-11 -2.20079e-09 -7.73091 5.47488 -0.417314 -3.37595e-10 6.99186e-11 -2.2008e-09 -2.90554 0.965183 -0.102902 -3.37606e-10 6.99199e-11 -2.2008e-09 -10.2786 0.731801 -0.0259123 -3.37589e-10 6.99203e-11 -2.2008e-09 -2.22167 -0.733487 0.20892 -2.03217e-16 0.0 -3.88251e-19 7.84285 14.126 1.50494 -0.10039 27.9892 0.630887 -0.10402 -2.89128 4.13203 2.03217e-16 0.0 3.88251e-19 16.1693 -15.7851 10.1422 0.0299554 7.84456 -0.0290116 -0.527363 8.25175 12.836
210.032 93.5204 -6.11928 136.754 101.065 130.762 7.36711 6.33199 15.6477 -4.67045 -3.56639 4.45241 0.472566 -12.0781 -2.41043 2.4687 6.61126 -4.97452 -0.0 0.0 0.0 -0.0 0.0 0.0 -3.39802e-14 -3.1485e-13 1.30142e-14 72.9357 49.5899 1.36837 -27.5068 -42.4853 88.5003 -0.658656 -22.4227 -3.32435 -4.48568e-10 -1.23099e-09 -1.37841e-09 -7.52942e-10 -2.14099e-09 -2.39041e-09 -4.48562e-10 -1.231e-09 -1.37842e-09 7.73091 5.47488 0.417314 -4.48568e-10 -1.231e-09 -1.37842e-09 2.90554 0.965183 0.102902 -4.48565e-10 -1.231e-09 -1.37841e-09 10.2786 0.731801 0.0259123 -4.48573e-10 -1.23099e-09 -1.3784e-09 2.22167 -0.733487 -0.20892 -3.40033e-14 -3.1485e-13 1.27968e-14 -114.452 38.4993 76.304 28.4297 -36.1373 -77.2377 0.904409 -25.9561 3.92283 -2.56935e-10 1.72559e-10 -1.28469e-09 -4.19459e-10 2.97788e-10 -2.22405e-09 -2.56942e-10 1.7256e-10 -1.28468e-09 -7.73091 5.47488 -0.417314 -2.56936e-10 1.72557e-10 -1.28469e-09 -2.90554 0.965183 -0.102902 -2.56945e-10 1.72559e-10 -1.2847e-09 -10.2786 0.731801 -0.0259123 -2.56929e-10 1.72559e-10 -1.28471e-09 -2.22167 -0.733487 0.20892 -2.03217e-16 0.0 -3.88251e-19 7.93661 13.6671 2.59103 -0.131073 29.5129 0.624079 -0.0372293 -3.18697 4.27948 2.03217e-16 0.0 3.88251e-19 16.3051 -15.8548 10.2838 0.0268231 6.48485 0.0229699 -0.59191 8.23348 13.1922
